<svg id="bf62ee98-879b-47a1-90ad-7f9e6177ef34" data-name="レイヤー 1" xmlns="http://www.w3.org/2000/svg" viewBox="0 0 462.681 584.6583"><defs><style>.fbfc1d50-a66c-4e97-bbf3-ce2053d65ede{fill:#fff;}.\30 7f5c655-89b5-4634-a06d-41c42088fecf{fill:#e35f27;}.b7d07e82-e7f2-4977-8bfb-8ffb278e4b33{fill:#00309c;}.bd4978bc-ddff-499d-8349-031b8b57a059{fill:#2957c1;}</style></defs><title>logo</title><path class="fbfc1d50-a66c-4e97-bbf3-ce2053d65ede" d="M446.873,559.9191s15.808-7.236,15.808-21.974V14.8058c0-4.048-5.19-8.596-10.737-6.692a193.9018,193.9018,0,0,0-23.883,11.418c-16.184,8.711-31.471,16.939-62.616,16.939s-46.431-8.228-62.616-16.939C284.988,9.93,266.54.0009,229.925.0009s-55.063,9.929-72.903,19.531c-16.183,8.711-31.47,16.939-62.613,16.939s-46.43-8.228-62.613-16.939a212.289,212.289,0,0,0-21.01-10.297C5.222,7.2858,0,11.8528,0,15.9128V540.1171c0,12.221,10.862,19.278,14.575,21.334q.609.315,1.218.633l.015.006v.001c1.904.997,3.796,2.013,5.699,3.036,17.84,9.603,36.288,19.532,72.902,19.532s55.063-9.929,72.902-19.532c16.184-8.71,31.47-16.938,62.614-16.938s46.431,8.228,62.615,16.938c17.842,9.603,36.289,19.532,72.905,19.532s55.064-9.929,72.906-19.532c3.109-1.673,6.189-3.324,9.352-4.907Z" transform="translate(0 -0.0009)"/><path class="07f5c655-89b5-4634-a06d-41c42088fecf" d="M109.6084,329.1227H81.7244c-4.917,0-7.333,4.417-7.333,8.083v23.923c0,3.295,1.958,7.185,5.922,7.942h30.706c3.964-.757,5.922-4.647,5.922-7.942v-23.923c0-3.666-2.416-8.083-7.333-8.083" transform="translate(0 -0.0009)"/><path class="07f5c655-89b5-4634-a06d-41c42088fecf" d="M35.1494,295.8586h0v45.103c0,14.349,6.26,16.417,9.177,16.417,2.246,0,7.719.143,8.175-13.478v-60.074h-14.94c-1.52,2.64-2.412,6.522-2.412,12.032" transform="translate(0 -0.0009)"/><path class="07f5c655-89b5-4634-a06d-41c42088fecf" d="M109.8223,223.8908H81.51c-4.769.129-7.119,4.459-7.119,8.071v23.833c0,3.485,2.188,7.639,6.624,8.044h29.302c4.437-.405,6.624-4.559,6.624-8.044v-23.833c0-3.612-2.349-7.942-7.119-8.071" transform="translate(0 -0.0009)"/><path class="07f5c655-89b5-4634-a06d-41c42088fecf" d="M90.8,158.1393h9.733c4.296-.514,6.412-4.598,6.412-8.028v-8.733c0-3.666-2.416-8.083-7.333-8.083l-.002-.006h-7.885l-.003.006c-4.917,0-7.333,4.417-7.333,8.083v8.733c0,3.43,2.115,7.514,6.411,8.028" transform="translate(0 -0.0009)"/><path class="07f5c655-89b5-4634-a06d-41c42088fecf" d="M220.4092,110.7951c-3.346,0-8.392.646-9.444,9.491-.256,40.433-2.198,66.179-6.518,87.359-3.876,19.005-9.713,34.836-20.097,53.996-4.128,9.578,1.01,11.853,2.684,13.071,1.648,1.198,7.135,2.929,13.312-6.175,21.2-39.639,27.387-72.807,27.955-145.893.008-9.477-4.27-11.849-7.892-11.849" transform="translate(0 -0.0009)"/><path class="07f5c655-89b5-4634-a06d-41c42088fecf" d="M252.3135,209.8825c.522-5.726-2.1-10.081-7.394-10.163h-.473c-5.049.07-7.761,1.872-9.461,8.222a177.0628,177.0628,0,0,1-14.65,43.211c3.442-.205,6.904-.311,10.722-.311,2.924,0,5.721.071,8.422.192a195.617,195.617,0,0,0,12.834-41.151" transform="translate(0 -0.0009)"/><path class="07f5c655-89b5-4634-a06d-41c42088fecf" d="M275.0234,257.1725V240.12c0-6.811-4.178-9.799-7.631-10.156h-1.751c-2.509.194-7.47,1.412-7.969,8.902v24.498h17.076a61.8346,61.8346,0,0,0,.275-6.191" transform="translate(0 -0.0009)"/><path class="07f5c655-89b5-4634-a06d-41c42088fecf" d="M148.0137,357.0949c2.239,0,7.686.142,8.17-13.353v-47.883c0-5.511-.892-9.392-2.412-12.033h-14.94V340.68l.005-.002c0,14.349,6.26,16.417,9.177,16.417" transform="translate(0 -0.0009)"/><path class="07f5c655-89b5-4634-a06d-41c42088fecf" d="M400.4092,261.7809c9.75-2.5,9.625-8.361,9.625-10.861,0-2.237-2.313-5.597-8.084-4.757a114.6463,114.6463,0,0,1-26.571,4.355v-13.801a133.3573,133.3573,0,0,0,27.186-3.972c5.871-2.12,7.377-4.992,7.734-7.858v-3.198c-.567-3.008-3.566-4.97-9.87-3.661a116.1636,116.1636,0,0,1-25.05,3.919v-38.099h-17.351v38.126a123.4271,123.4271,0,0,1-19.249-2.412v.005c-12.995-3.022-14.199,5.145-14.199,5.145v1.044c.228,2.018,1.919,6.433,11.947,8.414a140.4685,140.4685,0,0,0,21.501,2.572v13.804a121.8287,121.8287,0,0,1-20.793-2.746l.095.085c-9.766-2.935-12.162,1.124-12.75,3.186v2.633c.596,2.476,3.004,7.233,12.63,9.176a141.26,141.26,0,0,0,20.818,2.433v6.203c.514,5.52,3.845,10.863,8.59,10.863,5.166,0,8.761-4,8.761-12.334v-4.757a135.4667,135.4667,0,0,0,25.071-3.445Z" transform="translate(0 -0.0009)"/><path class="07f5c655-89b5-4634-a06d-41c42088fecf" d="M279.1074,342.0251c.523.014,1.047.023,1.57.017,1.925-.024,2.208-.3,2.216-2.267.014-3.284.004-6.568.005-9.853q.003-4.4265.001-8.852c-.001-3.383-.269-3.606-3.707-3.353-1.108.081-1.661.59-1.661,1.696q.0015,10.4955.005,20.989a1.4427,1.4427,0,0,0,1.571,1.623" transform="translate(0 -0.0009)"/><path class="07f5c655-89b5-4634-a06d-41c42088fecf" d="M313.3662,202.5451c0-7.333-4.832-9.5-8.415-9.5-1.5,0-8.936,0-8.936,9.5v63.632c0,10.197.895,18.382,5.16,24.363h12.191Z" transform="translate(0 -0.0009)"/><path class="07f5c655-89b5-4634-a06d-41c42088fecf" d="M361.0342,154.42c-5.913,6.729-.12,11.875.755,12.625.866.743,5.045,5.308,13.502-2.615l10.453-11.895c3.89-4.628,3.485-11.54.54-14.24-2.776-2.545-7.602-3.034-12.753,1.852l-12.54,14.27Z" transform="translate(0 -0.0009)"/><path class="07f5c655-89b5-4634-a06d-41c42088fecf" d="M296.28,155.5451c-5.038,5.733-1.581,10.314.095,12.01l1.56,1.371c1.792,1.316,5.9,3.047,12.849-3.6l10.399-11.834c5.464-6.383,2.951-11.833,1.413-13.632l-.875-.769c-1.854-1.3-6.969-3.782-12.579,1.818Z" transform="translate(0 -0.0009)"/><path class="07f5c655-89b5-4634-a06d-41c42088fecf" d="M254.96,311.5606c-.671-1.615-1.844-1.804-3.327-1.801-1.459.002-2.57.286-3.171,1.828-1.005,2.574-2.148,5.094-3.229,7.639-1.845,4.343-3.703,8.681-5.525,13.034-.634,1.514-.293,1.982,1.357,2.05,3.065.125,3.204.035,4.349-2.755.162-.397.346-.786.497-1.187a2.1822,2.1822,0,0,1,2.326-1.508c1.668.032,3.337.004,5.005.003,3.516,0,3.516,0,4.862,3.251.849,2.049,1.064,2.192,3.296,2.201,2.945.011,3.115-.259,1.941-3.011-2.804-6.577-5.636-13.143-8.381-19.744m-2.299,12.527c-.331.013-.663.002-.995.002-.284.003-.568.008-.852.002-1.841-.043-2.146-.471-1.49-2.146.432-1.102.855-2.212,1.373-3.274a5.0188,5.0188,0,0,1,.994-1.071,4.8759,4.8759,0,0,1,.885,1.014c.523,1.114.98,2.26,1.421,3.409.59,1.539.277,2.003-1.336,2.064" transform="translate(0 -0.0009)"/><path class="07f5c655-89b5-4634-a06d-41c42088fecf" d="M355.06,357.2209c3.513,0,3.513,0,4.873,3.245.874,2.085,1.022,2.184,3.285,2.193,2.954.012,3.111-.237,1.931-3.008-2.743-6.443-5.534-12.867-8.187-19.346a3.13,3.13,0,0,0-3.503-2.187c-2.175.101-2.47.221-3.321,2.22q-3.888,9.1395-7.774,18.28c-.354.833-.728,1.66-1.016,2.516s.066,1.349.981,1.497c2.949.478,3.762.039,4.915-2.725.128-.308.27-.611.375-.927a2.3419,2.3419,0,0,1,2.583-1.77c1.617.063,3.238.012,4.858.012m-3.619-7.645c.378-.928.729-1.871,1.176-2.764.17-.34.588-.787.874-.774.303.014.691.467.853.816.543,1.167,1.022,2.365,1.486,3.566.594,1.539.289,1.97-1.382,2.027-.333.012-.667.002-1.001.002-2.937.004-3.088-.21-2.006-2.873" transform="translate(0 -0.0009)"/><path class="07f5c655-89b5-4634-a06d-41c42088fecf" d="M322.3213,352.3752c2.265.898,3.881.055,4.656-2.225q3.201-9.4125,6.381-18.831c1.086-3.208.975-3.299-2.445-3.322a2.3925,2.3925,0,0,0-2.664,1.997c-.777,2.753-1.657,5.476-2.5,8.21-.394,1.275-.772,2.557-1.226,3.811a1.2877,1.2877,0,0,1-.767.687c-.145.042-.503-.375-.642-.647a10.2517,10.2517,0,0,1-.558-1.468c-1.166-3.531-2.379-7.049-3.463-10.606a2.544,2.544,0,0,0-2.939-2.04c-2.142.09-2.405.181-3.037,2.073-1.252,3.754-2.47,7.52-3.75,11.264a6.9481,6.9481,0,0,1-.97,1.466,6.1187,6.1187,0,0,1-.976-1.435c-1.149-3.588-2.231-7.196-3.336-10.797-.737-2.399-.865-2.49-3.421-2.492-2.824-.002-3.011.256-2.092,2.973q3.231,9.552,6.475,19.102c.774,2.274,1.011,2.449,3.062,2.456,2.22.008,2.486-.187,3.253-2.403q1.425-4.122,2.846-8.248c.312-.9.589-1.819.976-2.687a4.4121,4.4121,0,0,1,.882-.995,7.4444,7.4444,0,0,1,.84,1.051,8.4393,8.4393,0,0,1,.487,1.342c1.151,3.336,2.259,6.687,3.484,9.995a3.1753,3.1753,0,0,0,1.444,1.769" transform="translate(0 -0.0009)"/><path class="07f5c655-89b5-4634-a06d-41c42088fecf" d="M399.9922,353.0739h-.011c0-3.435-.01-6.87.006-10.304.006-1.241-.544-1.874-1.807-1.846-.43.01-.86-.011-1.289-.004-1.816.031-2.191.366-2.211,2.184-.032,3.053.014,6.106-.039,9.158a9.5522,9.5522,0,0,1-.454,1.991,8.9615,8.9615,0,0,1-1.693-1.337c-2.551-3.273-5.099-6.551-7.526-9.916a4.4675,4.4675,0,0,0-4.346-2.108c-1.878.152-2.251.386-2.263,2.304-.024,4.149-.011,8.3-.012,12.45,0,2.433-.016,4.866.011,7.299.022,1.936.372,2.27,2.242,2.302.191.003.382.003.573.002,2.252-.008,2.49-.229,2.497-2.43.011-3.339-.016-6.679.036-10.017a4.82,4.82,0,0,1,.547-1.484,5.2751,5.2751,0,0,1,1.207.867c2.083,2.671,4.12,5.377,6.174,8.07.983,1.29,1.949,2.594,2.96,3.862a4.4381,4.4381,0,0,0,4.472,1.009c1.325-.544.894-1.768.909-2.75.047-3.1.017-6.201.017-9.302" transform="translate(0 -0.0009)"/><path class="07f5c655-89b5-4634-a06d-41c42088fecf" d="M224.2207,313.1891c.954-.005,1.909.014,2.862-.01,1.693-.043,1.973-.39,1.979-2.378.005-2.118-.268-2.5-1.988-2.521-2.672-.031-5.344-.008-8.016-.007-2.768.001-5.535.014-8.302-.005-1.242-.009-1.871.555-1.871,1.803,0,.429.003.858,0,1.288-.007,1.225.548,1.866,1.827,1.827.953-.03,1.908-.002,2.863.003,2.507.01,2.688.186,2.691,2.683.006,4.819-.024,9.639.038,14.457.009.682.359,1.878.718,1.945a9.147,9.147,0,0,0,3.895-.031c.421-.111.687-1.535.699-2.364.065-4.723.027-9.447.035-14.17.004-2.286.238-2.507,2.57-2.52" transform="translate(0 -0.0009)"/><path class="b7d07e82-e7f2-4977-8bfb-8ffb278e4b33" d="M320.1178,494.2531c-10.592-.018-18.367-7.654-18.353-18.024.014-10.341,7.945-18.039,18.568-18.023,10.595.016,18.372,7.654,18.355,18.024-.018,10.343-7.95,18.042-18.57,18.023m-10.527-18.031c.013,6.341,4.576,11.143,10.622,11.177,6.093.034,10.646-4.705,10.651-11.087.006-6.402-4.649-11.294-10.705-11.25-6.144.045-10.581,4.73-10.568,11.16" transform="translate(0 -0.0009)"/><path class="b7d07e82-e7f2-4977-8bfb-8ffb278e4b33" d="M208.5361,476.1572c-.002-4.872-.014-9.743.003-14.614.008-2.259.481-2.715,2.714-2.761,4.685-.096,4.763-.018,4.768,4.682.003,2.315-.043,4.632.054,6.943a6.2493,6.2493,0,0,0,.746,1.889,5.9455,5.9455,0,0,0,1.825-.89c3.22-3.392,6.438-6.791,9.518-10.308a6.0432,6.0432,0,0,1,5.571-2.336c.811.092,1.649-.042,2.455.065.524.07,1.377.317,1.437.614a2.1906,2.1906,0,0,1-.536,1.639c-1.739,1.937-3.556,3.804-5.357,5.684-1.468,1.533-2.974,3.028-4.424,4.578-1.72,1.839-1.753,2.654-.276,4.666,3.683,5.014,7.386,10.013,11.034,15.051.384.531.802,1.452.587,1.884-.22.441-1.201.695-1.85.697-6.445.026-5.207.66-8.884-4.336-1.944-2.641-3.841-5.316-5.789-7.954-1.576-2.135-2.4-2.152-4.265-.335a5.6929,5.6929,0,0,0-1.865,4.51c.066,2.021-.042,4.048-.078,6.072-.027,1.447-.816,2.081-2.213,2.07-.916-.007-1.833.027-2.748,0-1.862-.054-2.407-.577-2.416-2.463-.026-5.015-.009-10.031-.011-15.047" transform="translate(0 -0.0009)"/><path class="b7d07e82-e7f2-4977-8bfb-8ffb278e4b33" d="M189.31,493.6832c-3.507,0-3.645-.093-4.984-3.388-1.824-4.489-1.824-4.489-6.611-4.488-2.557,0-5.113.033-7.668-.005a3.28,3.28,0,0,0-3.476,2.257c-.463,1.217-.995,2.407-1.493,3.61a2.8746,2.8746,0,0,1-3.009,2.009c-.963-.044-1.93.024-2.892-.025-1.624-.084-2.106-.76-1.506-2.266,1.036-2.597,2.154-5.162,3.247-7.736,3.203-7.547,6.442-15.078,9.593-22.646a3.5658,3.5658,0,0,1,3.728-2.519c4.289.032,4.308-.037,5.98,3.891q5.8935,13.8435,11.755,27.7c1.351,3.192,1.033,3.606-2.664,3.606m-14.4-14.549c.867,0,1.741.067,2.601-.016,1.196-.116,1.795-.862,1.367-2.007-.859-2.301-1.77-4.589-2.82-6.807-.575-1.216-1.566-1.216-2.139-.004-1.049,2.218-1.964,4.505-2.825,6.804-.429,1.142.164,1.891,1.36,2.014a24.2246,24.2246,0,0,0,2.456.016" transform="translate(0 -0.0009)"/><path class="b7d07e82-e7f2-4977-8bfb-8ffb278e4b33" d="M286.0646,493.6744c-3.469.007-3.568-.059-4.898-3.282-1.892-4.586-1.892-4.586-6.82-4.586-2.364.001-4.729.063-7.091-.016a3.6768,3.6768,0,0,0-4.072,2.713c-.382,1.141-.922,2.228-1.367,3.348a2.64,2.64,0,0,1-2.677,1.813c-.965-.004-1.93.029-2.894-.001-1.849-.058-2.357-.768-1.66-2.5,1.206-2.998,2.491-5.965,3.751-8.94q4.4055-10.392,8.817-20.781c1.14-2.693,1.469-2.92,4.436-2.931.435-.001.87.03,1.303-.001a3.2656,3.2656,0,0,1,3.525,2.363c3.425,8.187,6.911,16.349,10.374,24.52.791,1.865,1.599,3.724,2.359,5.601.822,2.03.416,2.618-1.784,2.678-.434.012-.869.002-1.302.002m-14.3-14.549v.053c.673,0,1.348.026,2.019-.005,1.799-.083,2.391-.843,1.775-2.52-.778-2.119-1.641-4.213-2.589-6.26-.624-1.349-1.668-1.388-2.298-.046-1.04,2.214-1.925,4.506-2.778,6.801-.402,1.081.193,1.807,1.28,1.954a19.4617,19.4617,0,0,0,2.591.023" transform="translate(0 -0.0009)"/><path class="b7d07e82-e7f2-4977-8bfb-8ffb278e4b33" d="M134.2539,458.7831c3.906,0,7.812-.017,11.717.006,2.164.014,2.632.509,2.676,2.648.081,3.905-.133,4.127-3.968,4.13-1.157.001-2.316-.013-3.472.008-2.656.05-3.243.623-3.251,3.258-.015,5.785-.005,11.572-.007,17.358-.001,1.687.017,3.375-.017,5.062-.038,1.86-.569,2.368-2.46,2.417-.867.023-1.737.025-2.604-.003-1.756-.059-2.24-.453-2.322-2.245-.104-2.262-.069-4.53-.073-6.796-.01-5.352.006-10.704-.014-16.056-.008-2.302-.63-2.935-2.904-2.988-1.735-.04-3.472.003-5.207-.028-1.82-.034-2.315-.502-2.508-2.271-.026-.239-.048-.479-.058-.72-.134-3.309.311-3.78,3.623-3.786,3.617-.007,7.233-.001,10.849-.001Z" transform="translate(0 -0.0009)"/><path class="bd4978bc-ddff-499d-8349-031b8b57a059" d="M321.2516,494.7775c-10.592-.019-18.367-7.655-18.353-18.025.014-10.34,7.945-18.039,18.568-18.023,10.595.016,18.372,7.654,18.355,18.025-.018,10.343-7.951,18.041-18.57,18.023m-10.527-18.032c.013,6.342,4.576,11.143,10.622,11.177,6.093.034,10.645-4.704,10.65-11.087.006-6.402-4.648-11.293-10.705-11.25-6.143.045-10.581,4.73-10.567,11.16" transform="translate(0 -0.0009)"/><path class="bd4978bc-ddff-499d-8349-031b8b57a059" d="M209.67,476.6806c-.002-4.871-.014-9.742.003-14.614.008-2.259.481-2.715,2.714-2.761,4.685-.096,4.763-.018,4.768,4.682.003,2.315-.043,4.632.054,6.943a6.2649,6.2649,0,0,0,.746,1.89,5.9683,5.9683,0,0,0,1.825-.89c3.22-3.393,6.438-6.791,9.518-10.309a6.0432,6.0432,0,0,1,5.571-2.336c.811.092,1.649-.042,2.455.066.524.069,1.376.316,1.437.614a2.19,2.19,0,0,1-.536,1.638c-1.739,1.937-3.556,3.804-5.357,5.684-1.469,1.533-2.975,3.028-4.425,4.578-1.719,1.839-1.752,2.655-.275,4.666,3.682,5.014,7.385,10.013,11.034,15.052.384.53.802,1.451.587,1.883-.22.441-1.201.695-1.85.698-6.446.025-5.207.659-8.884-4.337-1.944-2.641-3.841-5.316-5.789-7.954-1.576-2.134-2.4-2.152-4.266-.334a5.6939,5.6939,0,0,0-1.864,4.51c.066,2.021-.042,4.048-.078,6.072-.027,1.446-.816,2.08-2.213,2.069-.916-.007-1.833.027-2.748,0-1.862-.054-2.407-.577-2.416-2.462-.026-5.016-.009-10.032-.011-15.048" transform="translate(0 -0.0009)"/><path class="bd4978bc-ddff-499d-8349-031b8b57a059" d="M190.4439,494.2066c-3.508,0-3.645-.093-4.984-3.388-1.824-4.488-1.824-4.489-6.611-4.488-2.557,0-5.114.034-7.668-.005a3.2808,3.2808,0,0,0-3.476,2.258c-.463,1.216-.995,2.406-1.493,3.609a2.8765,2.8765,0,0,1-3.009,2.01c-.963-.045-1.93.024-2.892-.026-1.625-.084-2.106-.76-1.506-2.266,1.035-2.597,2.154-5.162,3.247-7.736,3.203-7.547,6.442-15.078,9.593-22.646a3.5669,3.5669,0,0,1,3.728-2.519c4.289.032,4.308-.036,5.98,3.892q5.8935,13.842,11.755,27.7c1.351,3.191,1.033,3.606-2.664,3.605m-14.4-14.549c.867,0,1.741.067,2.601-.016,1.196-.115,1.795-.862,1.367-2.007-.859-2.3-1.771-4.589-2.82-6.807-.575-1.216-1.566-1.216-2.139-.004-1.05,2.218-1.964,4.505-2.826,6.804-.428,1.143.165,1.891,1.361,2.014a23.9369,23.9369,0,0,0,2.456.016" transform="translate(0 -0.0009)"/><path class="bd4978bc-ddff-499d-8349-031b8b57a059" d="M287.1984,494.1983c-3.469.007-3.568-.059-4.898-3.282-1.893-4.586-1.893-4.586-6.82-4.586-2.364,0-4.729.063-7.091-.016a3.6768,3.6768,0,0,0-4.072,2.713c-.382,1.141-.922,2.227-1.367,3.348a2.64,2.64,0,0,1-2.677,1.813c-.965-.004-1.93.029-2.894-.001-1.849-.059-2.357-.768-1.66-2.501,1.206-2.997,2.491-5.964,3.751-8.939q4.4055-10.392,8.817-20.781c1.14-2.693,1.469-2.92,4.436-2.931.435-.002.87.03,1.302-.002a3.2678,3.2678,0,0,1,3.526,2.364c3.425,8.187,6.911,16.349,10.374,24.52.791,1.865,1.599,3.724,2.359,5.601.822,2.03.416,2.618-1.784,2.678-.434.012-.869.002-1.302.002m-14.3-14.549v.053c.673,0,1.347.026,2.019-.005,1.799-.083,2.391-.843,1.775-2.52-.778-2.119-1.641-4.213-2.589-6.261-.624-1.348-1.668-1.387-2.298-.046-1.04,2.215-1.926,4.507-2.778,6.802-.402,1.081.193,1.807,1.28,1.954a19.4617,19.4617,0,0,0,2.591.023" transform="translate(0 -0.0009)"/><path class="bd4978bc-ddff-499d-8349-031b8b57a059" d="M135.3877,459.3066c3.906,0,7.812-.017,11.717.007,2.163.013,2.632.508,2.676,2.647.081,3.905-.133,4.127-3.969,4.13-1.157.002-2.315-.013-3.471.008-2.656.05-3.244.624-3.251,3.258-.015,5.786-.005,11.572-.007,17.358-.001,1.688.017,3.376-.017,5.063-.039,1.86-.57,2.367-2.461,2.416-.867.023-1.737.026-2.603-.003-1.756-.058-2.24-.453-2.322-2.244-.104-2.262-.069-4.531-.073-6.796-.01-5.352.006-10.704-.014-16.056-.009-2.302-.631-2.935-2.904-2.989-1.736-.04-3.472.004-5.207-.028-1.82-.034-2.315-.502-2.509-2.27-.025-.24-.047-.48-.057-.721-.134-3.309.311-3.779,3.623-3.785,3.617-.008,7.233-.002,10.849-.002Z" transform="translate(0 -0.0009)"/><path class="bd4978bc-ddff-499d-8349-031b8b57a059" d="M220.3066,251.1706l.029-.019-.019.001Z" transform="translate(0 -0.0009)"/><path class="bd4978bc-ddff-499d-8349-031b8b57a059" d="M231.0576,165.8225a126.3427,126.3427,0,0,1,29.043,3.032l.001-.008c9.266,1.707,14.922-.609,14.922-6.989s-4.072-13.004-13.093-14.832l.058-.007a152.8841,152.8841,0,0,0-30.931-2.884,161.3169,161.3169,0,0,0-24.798,1.782l.025.004c-15.875,2.625-16.875,10.875-16.875,15.125s4,9.375,16.125,7l-.041.059a131.2523,131.2523,0,0,1,25.564-2.282" transform="translate(0 -0.0009)"/><path class="bd4978bc-ddff-499d-8349-031b8b57a059" d="M56.1182,79.1829c-5.167-1.667-20.967-6.8329-20.969,2.999v1.503c.001,9.831,4.803,12.831,16.635,16.831.517.175.954.353,1.356.532,11.227,3.52,24.72,5.876,42.527,5.876,36.58,0,55.011-9.92,72.835-19.513,16.169-8.703,31.441-16.923,62.555-16.923,31.116,0,46.389,8.22,62.559,16.923,17.824,9.593,36.255,19.513,72.838,19.513,17.793,0,31.279-2.352,42.501-5.867.407-.183.85-.363,1.375-.541,11.833-4,16.635-7,16.635-16.833v-1.5c0-9.8329-15.802-4.667-20.968-3a2.5726,2.5726,0,0,1-.435.103c-10.183,3.562-22.345,5.95-39.108,5.95-31.116,0-46.39-8.221-62.559-16.923-17.825-9.594-36.256-19.514-72.838-19.514s-55.011,9.92-72.835,19.514c-16.169,8.702-31.441,16.923-62.555,16.923-16.758,0-28.917-2.387-39.099-5.947a2.5966,2.5966,0,0,1-.45-.106" transform="translate(0 -0.0009)"/><path class="bd4978bc-ddff-499d-8349-031b8b57a059" d="M405.9971,281.2116a2.6091,2.6091,0,0,1-.299.071,107.2969,107.2969,0,0,1-29.982,5.733l-.337.263h-17.351l-.263-.231c-25.42-1.384-39.283-8.84-53.87-16.691-2.595-1.397-5.205-2.8-7.879-4.179,0,15.034,1.935,25.701,13.768,31.367l-.165.047c13.97,6.353,30.807,11.376,56.835,11.376,17.734,0,31.192-2.337,42.393-5.833a15.02,15.02,0,0,1,1.483-.59c11.833-4,16.635-7,16.635-16.833v-1.5c0-9.833-15.802-4.667-20.968-3" transform="translate(0 -0.0009)"/><path class="bd4978bc-ddff-499d-8349-031b8b57a059" d="M260.4346,275.64l-.15-.095c12,2.333,14.739-5.334,14.739-18.373a131.06,131.06,0,0,0-35.544-6.138c-2.701-.122-5.497-.192-8.422-.192-3.818,0-7.28.105-10.722.31-6.884,13.226,2.449,21.059,12.283,21.393l-.006.002a124.3685,124.3685,0,0,1,27.822,3.093" transform="translate(0 -0.0009)"/><path class="bd4978bc-ddff-499d-8349-031b8b57a059" d="M56.1182,174.5016c-5.167-1.667-20.967-6.833-20.969,2.999v1.503c.001,9.831,4.803,12.831,16.635,16.831a15.2233,15.2233,0,0,1,1.478.587c11.203,3.498,24.663,5.838,42.405,5.838,19.851,0,34.354-2.924,46.318-7.13,6.941-2.815,14.198-6.077,14.198-16.128,0-14.258-15.899-6.29-20.565-4.623a2.2107,2.2107,0,0,1-.48.115c-10.258,3.633-22.509,6.077-39.471,6.077-16.846,0-29.046-2.41-39.261-6.001a2.37,2.37,0,0,1-.288-.068" transform="translate(0 -0.0009)"/><path class="bd4978bc-ddff-499d-8349-031b8b57a059" d="M408.874,173.3991c-10.859,4.228-23.804,7.172-42.42,7.172a129.5279,129.5279,0,0,1-26.801-2.532l.006.006c-7.723-1.931-14.609,3.361-15.079,8.678v1.537c.338,5.676,3.657,8.889,9.083,10.725a150.65,150.65,0,0,0,32.791,3.274c17.23,0,30.426-2.203,41.435-5.535a11.7522,11.7522,0,0,1,2.441-1.091c11.833-4,16.635-7,16.635-16.834v-1.5c0-8.392-11.506-5.859-18.091-3.9" transform="translate(0 -0.0009)"/><path class="bd4978bc-ddff-499d-8349-031b8b57a059" d="M410.33,419.6829c11.833-4,16.635-7,16.635-16.833v-1.5c0-9.834-15.802-4.667-20.968-3a2.3692,2.3692,0,0,1-.502.106c-10.171,3.549-22.315,5.927-39.041,5.927-31.116,0-46.39-8.221-62.559-16.923-17.825-9.594-36.255-19.514-72.837-19.514s-55.012,9.92-72.835,19.514c-16.17,8.702-31.442,16.923-62.556,16.923-17.691,0-30.26-2.658-40.784-6.551-6.069-1.921-19.732-5.75-19.734,3.395v1.503c.001,9.831,4.803,12.831,16.635,16.831a13.4852,13.4852,0,0,1,2,.839c11.098,3.408,24.419,5.672,41.883,5.672,36.58,0,55.011-9.92,72.835-19.514,16.169-8.703,31.441-16.923,62.556-16.923s46.388,8.22,62.558,16.923c17.824,9.594,36.255,19.514,72.838,19.514,17.869,0,31.395-2.374,42.646-5.914.37-.16.768-.319,1.23-.475" transform="translate(0 -0.0009)"/><path class="bd4978bc-ddff-499d-8349-031b8b57a059" d="M137.0488,280.5451l.017-.049c-10.651,4.018-23.361,6.783-41.399,6.783s-30.749-2.765-41.399-6.783l.016.049c-9.833-3.333-19.134-2.5-19.134,15.313,14.714,7.149,32.163,13.11,60.517,13.11s45.802-5.961,60.517-13.11c0-17.813-9.302-18.646-19.135-15.313" transform="translate(0 -0.0009)"/></svg>