<svg id="2f4bad36-5aab-4b01-b86e-a238148e9b9e" data-name="レイヤー 1" xmlns="http://www.w3.org/2000/svg" viewBox="0 0 407.7512 67.7045"><defs><style>.\37 4ad6785-a6c7-4a20-a050-44f190f69e77{fill:#333;}.db638d1b-3350-42dd-80b7-5c3824bdae82{fill:#ff588e;}.\38 305e15a-7751-41db-a167-cae68c29c642{fill:#00a29a;}</style></defs><title>logo_cinra</title><path class="74ad6785-a6c7-4a20-a050-44f190f69e77" d="M278.451,662.4785A.6829.6829,0,0,1,278.22,663.5s-3.6649,2.007-5.4366,2.6683a21.99,21.99,0,0,1-5.634,1.2755,24.7,24.7,0,0,1-11.1264-1.24,27.2428,27.2428,0,0,1-9.2276-5.493,26.7214,26.7214,0,0,1-6.3071-8.61,24.9623,24.9623,0,0,1-2.3244-10.6666,26.5242,26.5242,0,0,1,2.11-10.4888A26.1456,26.1456,0,0,1,246.191,622.3a25.7963,25.7963,0,0,1,9.0168-5.6345,27.3064,27.3064,0,0,1,11.5165-1.5241,20.3038,20.3038,0,0,1,4.7128.8156,35.1709,35.1709,0,0,1,3.3519,1.2745.75.75,0,0,1,.3694,1.0276l-2.6945,5.3882a.876.876,0,0,1-1.0877.4129,23.4009,23.4009,0,0,0-3.2349-1.0518,21.6833,21.6833,0,0,0-3.6849-.2839,16.92,16.92,0,0,0-7.0515,1.524,19.8134,19.8134,0,0,0-9.9925,9.9925,17.06,17.06,0,0,0,.0354,14.1737,20.0775,20.0775,0,0,0,4.1458,5.9175,20.4774,20.4774,0,0,0,5.9175,4.075,16.4938,16.4938,0,0,0,6.9453,1.5241q1.3449,0,2.5156-.1062a13.5356,13.5356,0,0,0,2.3386-.4255,15.7634,15.7634,0,0,0,2.41-.8853c.8259-.3783,2.11-1.1009,2.11-1.1009a.9083.9083,0,0,1,1.1517.2537Z" transform="translate(-238.1638 -599.9006)"/><path class="74ad6785-a6c7-4a20-a050-44f190f69e77" d="M305.62,666.7943a.7931.7931,0,0,1-.7908.7909h-6.1429a.7932.7932,0,0,1-.7908-.7909V615.7908a.7932.7932,0,0,1,.7908-.7908h6.1429a.7931.7931,0,0,1,.7908.7908Z" transform="translate(-238.1638 -599.9006)"/><path class="74ad6785-a6c7-4a20-a050-44f190f69e77" d="M357.788,647.6618c.2979.3168.5417.22.5417-.2147V615.7908a.7932.7932,0,0,1,.7909-.7908h6.1428a.7932.7932,0,0,1,.7909.7908v51.0035c0,.435-.2488.5364-.5529.2254l-30.1477-30.8315c-.3041-.311-.5529-.21-.5529.2254v30.3807a.7932.7932,0,0,1-.7908.7909h-6.1429a.7931.7931,0,0,1-.7908-.7909V615.7908c0-.4349.2437-.5315.5417-.2147Z" transform="translate(-238.1638 -599.9006)"/><path class="74ad6785-a6c7-4a20-a050-44f190f69e77" d="M412.364,667.5852a1.3426,1.3426,0,0,1-1.1192-.72l-7.4933-16.42a1.22,1.22,0,0,0-1.117-.66s-.1449.011-.5935.011h-8.5993a.7931.7931,0,0,0-.7908.7908v16.2061a.7932.7932,0,0,1-.7908.7909h-6.1429a.7932.7932,0,0,1-.7909-.7909V615.7908a.7932.7932,0,0,1,.7909-.7908h14.2217c.4349,0,1.1466.0062,1.5815.0137,0,0,1.2527.0217,2.5051.0924a22.0987,22.0987,0,0,1,3.8269.567,14.6164,14.6164,0,0,1,3.8269,1.5241,11.3807,11.3807,0,0,1,3.366,2.9764,14.7385,14.7385,0,0,1,2.3746,4.925,26.32,26.32,0,0,1,.8858,7.3355,28.6033,28.6033,0,0,1-.5669,6.0589,16.2364,16.2364,0,0,1-1.5949,4.43,12.7372,12.7372,0,0,1-2.3387,3.0825,15.6631,15.6631,0,0,1-2.1268,1.6037.9179.9179,0,0,0-.3395,1.1341l8.4058,18.1246a.4669.4669,0,0,1-.4581.7175Zm-15.4016-25.5134c.435,0,1.1467-.0028,1.5817-.0062,0,0,2.1026-.0164,3.6384-.0645a10.5606,10.5606,0,0,0,4.1463-.9208,7.0006,7.0006,0,0,0,3.0472-2.8349,14.6191,14.6191,0,0,0,0-11.6227,7.0117,7.0117,0,0,0-3.0472-2.8349,10.941,10.941,0,0,0-4.11-.9561c-1.5128-.0718-3.6031-.0974-3.6031-.0974-.4349-.0054-1.1467-.01-1.5816-.01h-3.592a.7931.7931,0,0,0-.7908.7908V641.281a.7932.7932,0,0,0,.7908.7908Z" transform="translate(-238.1638 -599.9006)"/><path class="74ad6785-a6c7-4a20-a050-44f190f69e77" d="M496.5918,666.7943a.7932.7932,0,0,1-.7908.7909h-6.1429a.7932.7932,0,0,1-.7909-.7909v-6.1429a.7932.7932,0,0,1,.7909-.7908h6.1429a.7932.7932,0,0,1,.7908.7908Z" transform="translate(-238.1638 -599.9006)"/><path class="74ad6785-a6c7-4a20-a050-44f190f69e77" d="M537.3693,647.6618c.2979.3168.5417.22.5417-.2147V615.7908a.7932.7932,0,0,1,.7909-.7908h6.1438a.7932.7932,0,0,1,.7909.7908v51.0035c0,.435-.2489.5364-.553.2254l-30.1481-30.8315c-.3041-.311-.5529-.21-.5529.2254v30.3807a.7932.7932,0,0,1-.7908.7909h-6.1429a.7932.7932,0,0,1-.7909-.7909V615.7908c0-.4349.2438-.5315.5418-.2147Z" transform="translate(-238.1638 -599.9006)"/><path class="74ad6785-a6c7-4a20-a050-44f190f69e77" d="M595.1874,615a.7932.7932,0,0,1,.7908.7908v5.7184a.7932.7932,0,0,1-.7908.7909h-23.01a.7931.7931,0,0,0-.7908.7908v14.2929a.7932.7932,0,0,0,.7908.7909h15.2432a.7931.7931,0,0,1,.7908.7908v5.7174a.7932.7932,0,0,1-.7908.7908H572.1774a.7932.7932,0,0,0-.7908.7909v13.1589a.7932.7932,0,0,0,.7908.7909h23.01a.7931.7931,0,0,1,.7908.7908v5.7891a.7932.7932,0,0,1-.7908.7909H564.4529a.7932.7932,0,0,1-.7909-.7909V615.7908a.7932.7932,0,0,1,.7909-.7908Z" transform="translate(-238.1638 -599.9006)"/><path class="74ad6785-a6c7-4a20-a050-44f190f69e77" d="M623.52,623.5154a.7931.7931,0,0,0-.7908-.7908h-13.23a.7932.7932,0,0,1-.7909-.7909v-6.1429a.7932.7932,0,0,1,.7909-.7908h35.6251a.7931.7931,0,0,1,.7908.7908v6.1429a.7931.7931,0,0,1-.7908.7909H632.036a.7931.7931,0,0,0-.7908.7908v43.2789a.7932.7932,0,0,1-.7909.7909H624.31a.7932.7932,0,0,1-.7909-.7909Z" transform="translate(-238.1638 -599.9006)"/><path class="74ad6785-a6c7-4a20-a050-44f190f69e77" d="M472.5044,666.8733a1.3818,1.3818,0,0,0,1.1353.7119h6.2848a.46.46,0,0,0,.45-.7137L455.94,615.7136c-.1874-.3925-.4942-.3925-.6816,0l-24.4342,51.1579a.46.46,0,0,0,.45.7137h6.2141a1.3847,1.3847,0,0,0,1.1365-.7114l16.6288-34.2247c.19-.3912.5006-.3909.69.0006Z" transform="translate(-238.1638 -599.9006)"/><path class="74ad6785-a6c7-4a20-a050-44f190f69e77" d="M278.451,662.4785A.6829.6829,0,0,1,278.22,663.5s-3.6649,2.007-5.4366,2.6683a21.99,21.99,0,0,1-5.634,1.2755,24.7,24.7,0,0,1-11.1264-1.24,27.2428,27.2428,0,0,1-9.2276-5.493,26.7214,26.7214,0,0,1-6.3071-8.61,24.9623,24.9623,0,0,1-2.3244-10.6666,26.5242,26.5242,0,0,1,2.11-10.4888A26.1456,26.1456,0,0,1,246.191,622.3a25.7963,25.7963,0,0,1,9.0168-5.6345,27.3064,27.3064,0,0,1,11.5165-1.5241,20.3038,20.3038,0,0,1,4.7128.8156,35.1709,35.1709,0,0,1,3.3519,1.2745.75.75,0,0,1,.3694,1.0276l-2.6945,5.3882a.876.876,0,0,1-1.0877.4129,23.4009,23.4009,0,0,0-3.2349-1.0518,21.6833,21.6833,0,0,0-3.6849-.2839,16.92,16.92,0,0,0-7.0515,1.524,19.8134,19.8134,0,0,0-9.9925,9.9925,17.06,17.06,0,0,0,.0354,14.1737,20.0775,20.0775,0,0,0,4.1458,5.9175,20.4774,20.4774,0,0,0,5.9175,4.075,16.4938,16.4938,0,0,0,6.9453,1.5241q1.3449,0,2.5156-.1062a13.5356,13.5356,0,0,0,2.3386-.4255,15.7634,15.7634,0,0,0,2.41-.8853c.8259-.3783,2.11-1.1009,2.11-1.1009a.9083.9083,0,0,1,1.1517.2537Z" transform="translate(-238.1638 -599.9006)"/><path class="74ad6785-a6c7-4a20-a050-44f190f69e77" d="M305.62,666.7943a.7931.7931,0,0,1-.7908.7909h-6.1429a.7932.7932,0,0,1-.7908-.7909V615.7908a.7932.7932,0,0,1,.7908-.7908h6.1429a.7931.7931,0,0,1,.7908.7908Z" transform="translate(-238.1638 -599.9006)"/><path class="74ad6785-a6c7-4a20-a050-44f190f69e77" d="M357.788,647.6618c.2979.3168.5417.22.5417-.2147V615.7908a.7932.7932,0,0,1,.7909-.7908h6.1428a.7932.7932,0,0,1,.7909.7908v51.0035c0,.435-.2488.5364-.5529.2254l-30.1477-30.8315c-.3041-.311-.5529-.21-.5529.2254v30.3807a.7932.7932,0,0,1-.7908.7909h-6.1429a.7931.7931,0,0,1-.7908-.7909V615.7908c0-.4349.2437-.5315.5417-.2147Z" transform="translate(-238.1638 -599.9006)"/><path class="74ad6785-a6c7-4a20-a050-44f190f69e77" d="M412.364,667.5852a1.3426,1.3426,0,0,1-1.1192-.72l-7.4933-16.42a1.22,1.22,0,0,0-1.117-.66s-.1449.011-.5935.011h-8.5993a.7931.7931,0,0,0-.7908.7908v16.2061a.7932.7932,0,0,1-.7908.7909h-6.1429a.7932.7932,0,0,1-.7909-.7909V615.7908a.7932.7932,0,0,1,.7909-.7908h14.2217c.4349,0,1.1466.0062,1.5815.0137,0,0,1.2527.0217,2.5051.0924a22.0987,22.0987,0,0,1,3.8269.567,14.6164,14.6164,0,0,1,3.8269,1.5241,11.3807,11.3807,0,0,1,3.366,2.9764,14.7385,14.7385,0,0,1,2.3746,4.925,26.32,26.32,0,0,1,.8858,7.3355,28.6033,28.6033,0,0,1-.5669,6.0589,16.2364,16.2364,0,0,1-1.5949,4.43,12.7372,12.7372,0,0,1-2.3387,3.0825,15.6631,15.6631,0,0,1-2.1268,1.6037.9179.9179,0,0,0-.3395,1.1341l8.4058,18.1246a.4669.4669,0,0,1-.4581.7175Zm-15.4016-25.5134c.435,0,1.1467-.0028,1.5817-.0062,0,0,2.1026-.0164,3.6384-.0645a10.5606,10.5606,0,0,0,4.1463-.9208,7.0006,7.0006,0,0,0,3.0472-2.8349,14.6191,14.6191,0,0,0,0-11.6227,7.0117,7.0117,0,0,0-3.0472-2.8349,10.941,10.941,0,0,0-4.11-.9561c-1.5128-.0718-3.6031-.0974-3.6031-.0974-.4349-.0054-1.1467-.01-1.5816-.01h-3.592a.7931.7931,0,0,0-.7908.7908V641.281a.7932.7932,0,0,0,.7908.7908Z" transform="translate(-238.1638 -599.9006)"/><path class="74ad6785-a6c7-4a20-a050-44f190f69e77" d="M496.5918,666.7943a.7932.7932,0,0,1-.7908.7909h-6.1429a.7932.7932,0,0,1-.7909-.7909v-6.1429a.7932.7932,0,0,1,.7909-.7908h6.1429a.7932.7932,0,0,1,.7908.7908Z" transform="translate(-238.1638 -599.9006)"/><path class="74ad6785-a6c7-4a20-a050-44f190f69e77" d="M537.3693,647.6618c.2979.3168.5417.22.5417-.2147V615.7908a.7932.7932,0,0,1,.7909-.7908h6.1438a.7932.7932,0,0,1,.7909.7908v51.0035c0,.435-.2489.5364-.553.2254l-30.1481-30.8315c-.3041-.311-.5529-.21-.5529.2254v30.3807a.7932.7932,0,0,1-.7908.7909h-6.1429a.7932.7932,0,0,1-.7909-.7909V615.7908c0-.4349.2438-.5315.5418-.2147Z" transform="translate(-238.1638 -599.9006)"/><path class="74ad6785-a6c7-4a20-a050-44f190f69e77" d="M595.1874,615a.7932.7932,0,0,1,.7908.7908v5.7184a.7932.7932,0,0,1-.7908.7909h-23.01a.7931.7931,0,0,0-.7908.7908v14.2929a.7932.7932,0,0,0,.7908.7909h15.2432a.7931.7931,0,0,1,.7908.7908v5.7174a.7932.7932,0,0,1-.7908.7908H572.1774a.7932.7932,0,0,0-.7908.7909v13.1589a.7932.7932,0,0,0,.7908.7909h23.01a.7931.7931,0,0,1,.7908.7908v5.7891a.7932.7932,0,0,1-.7908.7909H564.4529a.7932.7932,0,0,1-.7909-.7909V615.7908a.7932.7932,0,0,1,.7909-.7908Z" transform="translate(-238.1638 -599.9006)"/><path class="74ad6785-a6c7-4a20-a050-44f190f69e77" d="M623.52,623.5154a.7931.7931,0,0,0-.7908-.7908h-13.23a.7932.7932,0,0,1-.7909-.7909v-6.1429a.7932.7932,0,0,1,.7909-.7908h35.6251a.7931.7931,0,0,1,.7908.7908v6.1429a.7931.7931,0,0,1-.7908.7909H632.036a.7931.7931,0,0,0-.7908.7908v43.2789a.7932.7932,0,0,1-.7909.7909H624.31a.7932.7932,0,0,1-.7909-.7909Z" transform="translate(-238.1638 -599.9006)"/><path class="74ad6785-a6c7-4a20-a050-44f190f69e77" d="M472.5044,666.8733a1.3818,1.3818,0,0,0,1.1353.7119h6.2848a.46.46,0,0,0,.45-.7137L455.94,615.7136c-.1874-.3925-.4942-.3925-.6816,0l-24.4342,51.1579a.46.46,0,0,0,.45.7137h6.2141a1.3847,1.3847,0,0,0,1.1365-.7114l16.6288-34.2247c.19-.3912.5006-.3909.69.0006Z" transform="translate(-238.1638 -599.9006)"/><circle id="51bc6e3e-e65b-4d85-a1ae-d483edf1ce29" data-name="&lt;パス&gt;" class="db638d1b-3350-42dd-80b7-5c3824bdae82" cx="212.8857" cy="59.9699" r="3.3299"/><circle id="54b32159-e4f6-48f5-893a-7306c4e2c840" data-name="&lt;パス&gt;" class="db638d1b-3350-42dd-80b7-5c3824bdae82" cx="221.9857" cy="59.9699" r="3.3299"/><circle id="3ff805db-69cd-4760-98e5-ce61a0d72a87" data-name="&lt;パス&gt;" class="db638d1b-3350-42dd-80b7-5c3824bdae82" cx="212.8857" cy="59.9699" r="3.3299"/><circle id="b7968e95-16e4-44fa-913d-a64e0d5da1ef" data-name="&lt;パス&gt;" class="db638d1b-3350-42dd-80b7-5c3824bdae82" cx="221.9857" cy="59.9699" r="3.3299"/><path class="db638d1b-3350-42dd-80b7-5c3824bdae82" d="M503.7213,600.5666l-29.912-.3362a4.4036,4.4036,0,0,0-3.9541,2.81l-5.5492,16.5378a2.5434,2.5434,0,0,0,1.9945,3.3959l14.895,2.7873-5.9137,5.9521a1.79,1.79,0,0,0-.4181,1.6247.8382.8382,0,0,0,1.1934.4938l13.8519-6.44,5.71,1.0686a3.373,3.373,0,0,0,3.7763-2.3318l6.498-22.6453A2.1723,2.1723,0,0,0,503.7213,600.5666Z" transform="translate(-238.1638 -599.9006)"/><path class="8305e15a-7751-41db-a167-cae68c29c642" d="M448.0332,613.5185l-1.8794-11.2493a2.8065,2.8065,0,0,0-3.42-2.2952L421.25,604.8489a2.5709,2.5709,0,0,0-1.8883,3.4788l4.6515,12.6224a3.2044,3.2044,0,0,0,3.9024,1.9256l4.2254-1.3116,6.6581,5.755a4.9283,4.9283,0,0,0,1.2845.7456.7479.7479,0,0,0,.9852-.5491,3.7654,3.7654,0,0,0-.2327-1.4954l-2.7071-6.315,7.5332-2.3383A3.545,3.545,0,0,0,448.0332,613.5185Z" transform="translate(-238.1638 -599.9006)"/></svg>