<svg id="15b2ae19-a754-4637-9f8b-57e4daf675d1" data-name="レイヤー 1" xmlns="http://www.w3.org/2000/svg" viewBox="0 0 240.5154 72.8796"><title>logo_herenow</title><path d="M639.9312,102.1393A296.6517,296.6517,0,0,1,653.4161,75.391a1.0526,1.0526,0,0,0,.0354-1.093c-.4624-.8131-1.9575-1.1019-3.0966-1.1019-.6608,0-2.2587.1045-2.8327,1.0727a297.4636,297.4636,0,0,0-13.5274,26.8306c-2.5829,5.583-5.2437,11.3386-8.0923,16.91.0549-3.9877.3791-8.0161.6927-11.93.101-1.2392.2-2.47.2888-3.69.22-2.9815.4836-5.9638.7494-8.9462.5135-5.8,1.0448-11.7986,1.2256-17.7147l.17-.3921a1.1783,1.1783,0,0,0-.0833-1.15c-.5137-.783-1.9345-1.0611-2.9974-1.0611-.5492,0-2.3809.0859-2.8663,1.1993L621.77,77.3433c-5.2443,12.0693-10.681,24.5107-16.7194,36.4723-2.1045,4.0536-4.457,7.9-8.5257,10.9258-2.8752,2.1365-4.4182,2.1063-5.8434-.0407a9.4684,9.4684,0,0,1-.8618-1.6245q.5275-.2578.9991-.5137c3.09-1.6794,12.7532-12.6558,12.0411-18.6524a4.0779,4.0779,0,0,0-3.3269-3.56,7.941,7.941,0,0,0-2.0479-.2666c-5.1587,0-9.3882,4.7973-10.5618,6.2685a20.053,20.053,0,0,0-3.9239,13.56,14.9525,14.9525,0,0,0,.209,1.6741c-1.721.5669-3.1223.4553-4.0984-.34-3.8486-3.1462.543-11.2386,1.98-13.6434a1.2825,1.2825,0,0,0-.3534-1.6227c-.9628-.8627-1.8486-1.8282-2.7042-2.7618a21.0064,21.0064,0,0,0-5.75-4.9027,3.2739,3.2739,0,0,0-1.473-.2808c-1.3375,0-3.4376.4987-3.6954,1.57-.0921.38.008.94,1.0036,1.45a9.5764,9.5764,0,0,1,1.0875.6769,93.1605,93.1605,0,0,1-9.3605,15.78c-1.8229,2.4784-7.3722,10.018-11.5557,10.02a2.998,2.998,0,0,1-1.6883-.5,7.5566,7.5566,0,0,1-1.8291-1.6351,24.5505,24.5505,0,0,0,11.0658-9.06c1.3269-1.9026,5.46-8.3935,2.9186-12.1048a4.3466,4.3466,0,0,0-3.8531-1.6493,14.1412,14.1412,0,0,0-5.43,1.28c-2.9328,1.3658-5.8106,4.0249-8.5547,7.9037-1.7627,2.4908-4.4944,7.3447-3.1613,12.0552a2.882,2.882,0,0,1-.49-.1311c-2.14-.7954-2.7211-3.7592-2.877-5.4563-.3581-3.8649.9447-7.788,2.6154-11.5048.4359-.0286.87-.052,1.3165-.1075.0283-.0035,2.815-.4207,2.8929-1.4367.0487-.6209-.7423-.8441-1.0018-.9176-.5978-.1687-1.2283-.2831-1.847-.4173.29-.5837.5808-1.1622.8674-1.73q.4145-.8211.8122-1.6165c4.3624-8.7912,9.4148-17.3707,14.2156-25.4054a.81.81,0,0,0,.0177-.837c-.4606-.8131-2.3508-1.0284-3.2853-1.0284-.7786,0-2.1542.1178-2.6254.9035q-1.14,1.9093-2.2986,3.83c-4.8755,8.1009-9.8643,16.4318-13.7383,25.1334a54.6347,54.6347,0,0,0-16.6221,2.202,309.9,309.9,0,0,1,16.7241-29.8855,1.0208,1.0208,0,0,0,.0638-1.0762c-.4207-.7671-1.8734-1.1107-3.1259-1.1107-.6484,0-2.22.101-2.8176,1.0363a333.6938,333.6938,0,0,0-30.1343,60.7168,14.5645,14.5645,0,0,0-6.445-6.4665,5.3065,5.3065,0,0,0-4.1312.0018,1.3374,1.3374,0,0,0,.0053,2.5793c4.5451,2.0613,6.6967,9.22,7.4351,12.34-.0394.11-.0812.2148-.12.3249a1.2618,1.2618,0,0,0,.1488,1.1976,3.77,3.77,0,0,0,2.946,1.0452h.0009a4.7433,4.7433,0,0,0,1.92-.3823,2.3984,2.3984,0,0,0,1.2391-.7,1.0571,1.0571,0,0,0,.2285-.907c-.0285-.1346-.0629-.2818-.0941-.4223,4.3349-12.0279,9.0119-23.3216,14.0826-34.0164.4579.0285.9025.0463,1.3307.0463a12.4756,12.4756,0,0,0,4.1321-.6112,65.3307,65.3307,0,0,1,7.13-2.0931c.9655-.225,1.9841-.4145,3.1135-.5819l.3127-.0461a4.4083,4.4083,0,0,1,1.3549-.1008c-.4175,1.0228-.8351,2.0458-1.2158,3.08-2.4837,6.7469-2.2428,11.7479.7148,14.864,2.0373,2.1489,5.102,2.6006,7.3137,2.6006.4624,0,.9239-.0195,1.3809-.0549,1.8716,2.3668,5.1374,3.72,9.0082,3.72.5164,0,1.0275-.0266,1.53-.0744,6.2871-.6094,11.0933-5.6458,14.9658-10.4927a82.621,82.621,0,0,0,8.7929-13.9191c.4.4462.7959.8971,1.2189,1.3244-2.7937,4.9523-5.1046,11.6469-.7981,16.0544,2.2348,2.287,5.8823,2.9,10.44,1.7857a8.7025,8.7025,0,0,0,4.3526,4.22,10.2266,10.2266,0,0,0,3.9833.799c2.993,0,6.2978-1.279,9.5591-3.7025a28.0553,28.0553,0,0,0,7.5807-9.3127,1.4529,1.4529,0,0,0,.113-.1349c.1415-.2754.2724-.5587.4131-.8346q.6082-1.1365,1.1972-2.2957a1.3319,1.3319,0,0,0,.0595-.2433c3.468-6.9381,6.7413-14.0056,9.8883-21.0795-.0342.3861-.0675.7775-.1016,1.1619-.2551,2.8894-.512,5.7778-.7281,8.6663-.0868,1.1533-.1825,2.3163-.2764,3.4872-.6023,7.4121-1.2241,15.0739-.0886,22.3744l-.1772.3012.2268.0142c.1842,1.0293,1.3251,1.667,2.9868,1.667,1.0824,0,2.5315-.3136,3.0559-1.2011.0177-.0283.0337-.0567.0514-.085l.1931.0106-.0425-.2657C631.6281,120.0928,635.8479,110.9677,639.9312,102.1393Zm-45.8931,4.09a12.0527,12.0527,0,0,1,1.9062-1.53q.2777-.1727.5633-.3339a10.0451,10.0451,0,0,1-.2569,1.5545l-.05.2285c-.9655,4.55-4.3128,8.75-6.2225,10.85-.2843.3118-.6165.6413-.9832.9761A18.442,18.442,0,0,1,594.0381,106.2289Zm-40.7548.05a9.9493,9.9493,0,0,1-.2489,2.1958l-.0354.178c-.95,4.908-4.58,9.8754-9.5432,13.1137-.2135-5.0807,4.78-11.7,8.6973-14.7072C552.5074,106.7878,552.8812,106.5309,553.2833,106.2794Z" transform="translate(-484.8617 -73.1253)"/><path d="M725.2727,92.4579c-.411-.845-1.9735-1.2232-3.3393-1.2232-.659,0-2.2729.101-3.0045,1.039-1.3942,1.7813-3.9895,5.0958-7.2331,5.25a16.0018,16.0018,0,0,1-5.5325-1.1559c-.4535-.1506-.8982-.2985-1.334-.4331a6.0844,6.0844,0,0,0-1.6865-.2223c-1.8548,0-3.0346.7148-3.1569,1.9132-.7423,7.4059-1.9682,12.92-3.9718,17.8773-1.0753,2.6555-2.6077,5.8726-5.0187,7.4918a6.45,6.45,0,0,1-.9974-2.9638,17.4094,17.4094,0,0,1-.0833-4.2,81.0451,81.0451,0,0,0,2.1861-8.8727l.124-.3605-.0585-.0044a1.2976,1.2976,0,0,0-.3012-1.0018,3.8888,3.8888,0,0,0-2.9354-.9664c-1.3127,0-2.8451.3764-3.21,1.4332-.0071.0221-.0159.0452-.023.0691l-.0177-.0018-.0195.1107a46.3322,46.3322,0,0,0-1.9628,8.1065,37.8277,37.8277,0,0,1-3.4881,8.025,13.1421,13.1421,0,0,1-3.0736,3.6068,2.411,2.411,0,0,1-.202.1417c-1.7892-1.72-1.7768-5.3624-1.77-7.3536.0142-5.6476,1.876-11.1429,3.6989-15.7754l.2586-.54-.1311-.0195a1.4019,1.4019,0,0,0-.248-.87,3.7448,3.7448,0,0,0-2.9939-1.1152c-1.2135,0-2.6821.3587-3.1657,1.3667l-.0071.0142a41.4608,41.4608,0,0,1-9.0862,12.6593,19.7618,19.7618,0,0,1-1.8158,1.4934c1.3393-3.2773,2.4093-7.5,1.2312-11.1393-.9354-2.8894-3.5342-4.6139-6.9515-4.6139a10.51,10.51,0,0,0-2.7565.3738,7.78,7.78,0,0,0-5.4,5.8,5.4668,5.4668,0,0,0-2.6077-.6023,3.4647,3.4647,0,0,0-2.574.84c-4.4873,5.055-6.5281,10.3962-5.9009,15.445a9.3165,9.3165,0,0,0,7.6441,8.2553,9.4882,9.4882,0,0,0,1.9168.1966c5.0187,0,8.9232-4.1082,10.8045-6.5582.5952-.7759,1.1834-1.6209,1.745-2.512.1382-.0071.2764-.0177.4145-.03a16.53,16.53,0,0,0,9.4387-4.4465,28.9006,28.9006,0,0,0,.0142,4.3119c.3685,4.5847,2.4553,7.7451,5.7238,8.6663,4.2959,1.217,8.08-.3791,11.1393-4.7016,1.396,1.5076,3.396,2.1719,6.1171,1.9451,3.3624-.2764,6.2677-2.5545,8.8824-6.9639,3.6352-6.1295,4.9532-13.6089,5.6689-19.5621a21.88,21.88,0,0,0,7.7345.5935c5.0506-.5952,8.6061-4.3943,11.1411-7.6388A1.0651,1.0651,0,0,0,725.2727,92.4579ZM654.5,112.8756l-.0461-.1116c-1.0505-2.6086-.8184-6.4643,1.3871-8.4165a5.1429,5.1429,0,0,1,.9194,3.1684,16.8127,16.8127,0,0,1-1.46,7.1862C654.9555,114.0041,654.6827,113.3291,654.5,112.8756Zm-1.814,6.9887q-.42.7148-.8415,1.3871c-1.2436,2.0054-4.3154,5.9665-5.9736,5.1977-2.5687-1.1922-2.7281-5.3677-2.7157-6.62.0354-3.9718,2.1382-7.5414,4.2339-10.1358.0035.295.0177.59.0425.8831A12.1455,12.1455,0,0,0,652.6862,119.8643Z" transform="translate(-484.8617 -73.1253)"/></svg>