<svg id="fd67c534-caf4-4b91-a2d1-4f64b3aeed57" data-name="Logo" xmlns="http://www.w3.org/2000/svg" viewBox="0 0 18.7092 18.7092"><defs><style>.\32 939c2be-fa3d-43dd-999a-6b1423219d79{fill:#fff;}</style></defs><title>instagram</title><path class="2939c2be-fa3d-43dd-999a-6b1423219d79" d="M256,248.3309c2.4978,0,2.7936.01,3.78.0545a5.1762,5.1762,0,0,1,1.737.3221,3.0979,3.0979,0,0,1,1.7754,1.7754,5.1762,5.1762,0,0,1,.3221,1.737c.045.9864.0545,1.2823.0545,3.78s-.01,2.7936-.0545,3.78a5.1762,5.1762,0,0,1-.3221,1.737,3.0979,3.0979,0,0,1-1.7754,1.7754,5.1762,5.1762,0,0,1-1.737.3221c-.9863.045-1.2821.0545-3.78.0545s-2.7938-.01-3.78-.0545a5.1762,5.1762,0,0,1-1.737-.3221,3.0979,3.0979,0,0,1-1.7754-1.7754,5.1762,5.1762,0,0,1-.3221-1.737c-.045-.9864-.0545-1.2823-.0545-3.78s.01-2.7936.0545-3.78a5.1762,5.1762,0,0,1,.3221-1.737,3.0979,3.0979,0,0,1,1.7754-1.7754,5.1762,5.1762,0,0,1,1.737-.3221c.9864-.045,1.2823-.0545,3.78-.0545m0-1.6855c-2.5406,0-2.8591.0108-3.8569.0563a6.8662,6.8662,0,0,0-2.2707.4348,4.7834,4.7834,0,0,0-2.7359,2.7359,6.8662,6.8662,0,0,0-.4348,2.2707c-.0455.9978-.0563,1.3163-.0563,3.8569s.0108,2.8591.0563,3.8569a6.8662,6.8662,0,0,0,.4348,2.2707,4.7834,4.7834,0,0,0,2.7359,2.7359,6.8661,6.8661,0,0,0,2.2707.4348c.9978.0455,1.3163.0563,3.8569.0563s2.8591-.0108,3.8569-.0563a6.8661,6.8661,0,0,0,2.2707-.4348,4.7834,4.7834,0,0,0,2.7359-2.7359,6.8661,6.8661,0,0,0,.4348-2.2707c.0455-.9978.0563-1.3163.0563-3.8569s-.0108-2.8591-.0563-3.8569a6.8661,6.8661,0,0,0-.4348-2.2707,4.7834,4.7834,0,0,0-2.7359-2.7359,6.8662,6.8662,0,0,0-2.2707-.4348c-.9978-.0455-1.3163-.0563-3.8569-.0563Z" transform="translate(-246.6454 -246.6454)"/><path class="2939c2be-fa3d-43dd-999a-6b1423219d79" d="M256,251.1963A4.8037,4.8037,0,1,0,260.8037,256,4.8037,4.8037,0,0,0,256,251.1963Zm0,7.9219A3.1182,3.1182,0,1,1,259.1182,256,3.1182,3.1182,0,0,1,256,259.1182Z" transform="translate(-246.6454 -246.6454)"/><circle class="2939c2be-fa3d-43dd-999a-6b1423219d79" cx="14.3481" cy="4.3611" r="1.1226"/></svg>