<svg id="2c13f1b8-c476-4c6e-a8a1-8a6cd87d9bd8" data-name="編集モード" xmlns="http://www.w3.org/2000/svg" viewBox="0 0 224.9167 58.9693"><title>logo_sheis</title><g id="4393749f-22c1-4465-9b42-5414335ce986" data-name="&lt;グループ&gt;"><path id="ea2a5289-2a68-46e3-8620-bb9630be00d5" data-name="&lt;複合パス&gt;" d="M361.34,288.9306l2.6895-2.6885V282.44L361.34,279.751h-3.8018l-2.6885,2.6895v3.8018l2.6885,2.6885Zm-4.49-5.6621,1.5166-1.5176h2.1455l1.5176,1.5176v2.1455l-1.5176,1.5166h-2.1455l-1.5166-1.5166Z" transform="translate(-185.1817 -258.8389)"/><path id="72a60251-4014-4d74-a5f7-655cf941e275" data-name="&lt;複合パス&gt;" d="M297.0283,315.3444a6.5315,6.5315,0,0,1-4.501-3.9863,31.0422,31.0422,0,0,0,5.8086-4.2607,8.3485,8.3485,0,0,0,2.4619-4.2119,3.8738,3.8738,0,0,0-.9277-3.5254c-1.4482-1.4473-4.4277-1.582-7.5547,1.5459-1.7314,1.7314-2.9551,5.6855-2.1553,9.4922a49.714,49.714,0,0,1-13.5029,5.1133c-2.1436.4463-3.6768.1953-4.6836-.7549-2.3555-2.2246-1.8633-8.05-.9795-14.0137.4766-3.2158.0088-5.1836-1.4287-6.0166-1.9482-1.126-5.124.1934-10.3018,4.28-2.2566,1.7814-6.1218,4.7717-9.9937,7.7542l19.5031-19.503c9.4346-5.2557,18.7992-11.1359,21.8519-14.1887a9.9824,9.9824,0,0,0,2.793-4.3262,3.5236,3.5236,0,0,0-.7764-3.52c-1.8164-1.8174-7.3542-2.9662-11.4187,1.1l-25.5284,25.5284c-1.8948.9215-3.6392,1.726-5.1389,2.3588-8.7666,3.6982-16.3828,4.8643-23.1318,3.5332.3857-2.8643.5488-5.6289.6816-7.8721.0371-.6242.3685-3.8807.7266-7.3157l13.7927-13.7927c2.89-2.8965,1.217-7.1592-.323-8.6973-1.6631-1.6621-6.3421-1.8379-8.92.7393-3.2793,3.28-4.9466,6.6962-5.598,12.6484-.02.1863-.0944.8753-.2,1.8663L212.7507,290.153a86.8735,86.8735,0,0,0-9.9246-5.8291,13.0587,13.0587,0,0,0-12.377.4648c-3.3594,2.1016-5.209,5.72-5.209,10.1875,0,5.5,2.8945,10.9552,7.5114,15.1759l-7.57,7.57h8.4844l3.9718-3.9718a30.44,30.44,0,0,0,9.0828,3.5766,14.3137,14.3137,0,0,0,3.02.3291c4.9365,0,8.7188-2.7207,11.833-5.5205,3.1641-2.8437,4.7217-7.6279,5.5479-12.4111,7.1182,1.3887,15.0957.1738,24.2119-3.6719.0913-.0385.19-.0823.2828-.1219L229.8242,317.722h8.4844l.1107-.1107c.5413-.4134,16.3956-12.5447,22.0836-17.0345,5.7959-4.5771,7.5654-4.4053,8.0605-4.1191.2256.1309.9248.8037.4521,3.9922-.8965,6.0537-1.5879,12.7637,1.584,15.76a5.8779,5.8779,0,0,0,4.2,1.5107,11.1838,11.1838,0,0,0,2.2627-.25,51.3547,51.3547,0,0,0,13.7119-5.1182,8.5574,8.5574,0,0,0,5.71,4.916c6.3164,1.7861,14.1836-1.6895,28.0469-12.3926l-1.2227-1.584C310.0195,313.5534,302.6455,316.9264,297.0283,315.3444Zm-62.2327-53.125c2.7-2.7,6.698-.8093,3.587,2.3018l-8.5348,8.5347C230.5692,267.2848,232.1947,264.82,234.7955,262.2194ZM187.24,294.9762c0-3.7529,1.5166-6.7686,4.2705-8.4922a10.3244,10.3244,0,0,1,5.4629-1.499,11.428,11.428,0,0,1,4.9775,1.1377,83.38,83.38,0,0,1,9.3574,5.4724L194.2056,308.698C189.95,304.8251,187.24,299.8645,187.24,294.9762Zm32.9951,15.6729c-3.5127,3.1592-7.5322,5.9189-13.0947,4.7227a28.0175,28.0175,0,0,1-8.0215-3.1028l17.2753-17.2753a34.23,34.23,0,0,0,5.8848,3.3341,28.7414,28.7414,0,0,0,2.8926.9453C224.415,303.7428,223.0166,308.1491,220.2353,310.6491Zm5.2334-13.3691q-1.2539-.3486-2.4687-.8174a30.8064,30.8064,0,0,1-5.16-2.9142l8.75-8.75c-.2522,2.4567-.4518,4.471-.48,4.9562C225.9824,291.901,225.8261,294.55,225.4687,297.28Zm59.9963-26.7143c3.1621-3.1621,4.7849-4.9048,5.7625-3.9283.7227.7227.3994,2.6006-2.0166,5.0176-2.2236,2.2236-8.17,6.1352-15.0044,10.1693Zm6.54,38.7631c-.3818-2.8281.4961-5.7793,1.7246-7.0088a6.2145,6.2145,0,0,1,3.09-1.9,2.714,2.714,0,0,1,.5176-.0527,1.5382,1.5382,0,0,1,1.1191.4072,1.9044,1.9044,0,0,1,.377,1.7422,6.25,6.25,0,0,1-1.9111,3.167A27.701,27.701,0,0,1,292.0048,309.3288Z" transform="translate(-185.1817 -258.8389)"/><path id="33333055-2ffe-4786-9c9b-f343ccaff8ec" data-name="&lt;複合パス&gt;" d="M408.6882,305.43c-2.917,2.8965-9.38,5.5166-15.0342,6.0918-3.6191.373-8.5527-1.0039-12.5186-2.1064-.2207-.0615-.4375-.1221-.6523-.1816a72.3585,72.3585,0,0,0-.9648-12.6953l-.3623-2.2285-1.4072,1.7656a133.3425,133.3425,0,0,1-12.7012,13.4424c-4.8281,4.4141-9.1357,6.7041-11.4785,6.1172a2.2788,2.2788,0,0,1-1.6357-1.5947c-1.4912-4.1357-1.0221-11.2594-1.0162-11.3483l-.0052-8.4792-23.51,23.5088h8.4846l12.9974-12.9968c0,3.0881.2015,7.3137,1.1683,9.9932a4.2531,4.2531,0,0,0,3.0371,2.8594c3.1465.7686,7.749-1.5,13.3076-6.583a137.6932,137.6932,0,0,0,11.4648-11.9287,67.6165,67.6165,0,0,1,.6445,9.6377,18.5074,18.5074,0,0,0-2.6426-.5234,7.7483,7.7483,0,0,0-6.9121,3.708,3.6292,3.6292,0,0,0,.2119,4.123,4.7408,4.7408,0,0,0,3.8486,1.7969,6.0381,6.0381,0,0,0,.6719-.0381,7.8477,7.8477,0,0,0,6.02-4.3691,8.0842,8.0842,0,0,0,.5859-2.1445c.1025.0283.2061.0566.3105.0859,4.127,1.1484,9.2588,2.5674,13.2568,2.17,6.0557-.6172,13.0381-3.4814,16.2412-6.6641Zm-30.7969,7.125a5.7845,5.7845,0,0,1-4.4268,3.2275,2.9441,2.9441,0,0,1-2.7187-.9941,1.5939,1.5939,0,0,1-.042-1.9355,5.9388,5.9388,0,0,1,4.6631-2.6963c.1055,0,.208.0049.31.0137a18.8808,18.8808,0,0,1,2.68.56A6.5184,6.5184,0,0,1,377.8913,312.5553Z" transform="translate(-185.1817 -258.8389)"/></g></svg>