<svg id="ff49ccb8-b8c8-44c2-b375-34e94aeab78d" data-name="Layer 1" xmlns="http://www.w3.org/2000/svg" viewBox="0 0 273.3896 222.1782"><title>twitter</title><path d="M340.7324,115.2305a112.124,112.124,0,0,1-32.2148,8.832A56.2518,56.2518,0,0,0,333.18,93.0312a112.2987,112.2987,0,0,1-35.6172,13.6114A56.142,56.142,0,0,0,201.9834,157.8,159.2357,159.2357,0,0,1,86.375,99.1963,56.1511,56.1511,0,0,0,103.7334,174.08a55.861,55.861,0,0,1-25.4053-7.0157c-.0039.2344-.0048.4688-.0048.7051a56.1229,56.1229,0,0,0,44.9931,54.9986,56.23,56.23,0,0,1-25.33.9609,56.1472,56.1472,0,0,0,52.3956,38.9531,112.5422,112.5422,0,0,1-69.6592,24.01,114.1745,114.1745,0,0,1-13.38-.7832,158.76,158.76,0,0,0,85.9795,25.1992c103.1689,0,159.5849-85.4668,159.5849-159.5864q0-3.6476-.1621-7.2559A113.9922,113.9922,0,0,0,340.7324,115.2305Z" transform="translate(-67.3428 -88.9297)"/></svg>